<?xml version="1.0" encoding="UTF-8" standalone="no"?>
<!-- Created with Inkscape (http://www.inkscape.org/) -->

<svg
   width="300mm"
   height="300mm"
   viewBox="0 0 300 300"
   version="1.1"
   id="svg1"
   xml:space="preserve"
   inkscape:export-filename="..\pieces\pawn-b.svg"
   inkscape:export-xdpi="96"
   inkscape:export-ydpi="96"
   sodipodi:docname="pawn-b.svg"
   inkscape:version="1.3 (0e150ed6c4, 2023-07-21)"
   xmlns:inkscape="http://www.inkscape.org/namespaces/inkscape"
   xmlns:sodipodi="http://sodipodi.sourceforge.net/DTD/sodipodi-0.dtd"
   xmlns="http://www.w3.org/2000/svg"
   xmlns:svg="http://www.w3.org/2000/svg"><sodipodi:namedview
     id="namedview1"
     pagecolor="#ffffff"
     bordercolor="#ffffff"
     borderopacity="1"
     inkscape:showpageshadow="0"
     inkscape:pageopacity="0"
     inkscape:pagecheckerboard="1"
     inkscape:deskcolor="#505050"
     inkscape:document-units="mm"
     inkscape:zoom="0.31992162"
     inkscape:cx="534.50591"
     inkscape:cy="526.6915"
     inkscape:window-width="1366"
     inkscape:window-height="705"
     inkscape:window-x="-8"
     inkscape:window-y="-8"
     inkscape:window-maximized="1"
     inkscape:current-layer="layer1" /><defs
     id="defs1" /><g
     inkscape:label="Pawn"
     inkscape:groupmode="layer"
     id="layer1"
     transform="translate(-316.68338,-30.348824)"><path
       id="path2"
       style="fill:#fff3e8;fill-opacity:1;stroke:none;stroke-width:6.28696;stroke-linecap:square;stroke-linejoin:miter;stroke-miterlimit:24.3;stroke-dasharray:none;stroke-opacity:1;paint-order:markers stroke fill"
       d="m 433.68593,116.19263 c 0,26.3488 25.58273,33.8549 25.58273,33.8549 0,0 -32.323,4.44284 -32.16982,9.65132 0.15321,5.2085 13.63391,4.74877 13.63391,4.74877 0,0 3.52323,20.22149 1.22536,32.17038 -2.29785,11.94889 -8.70157,29.89615 -8.70157,29.89615 l -9.31561,7.04086 c 0,0 -17.65645,10.07428 -18.08974,14.19054 -0.43329,4.11623 -1.78743,10.45298 -1.78743,10.45298 0,0 -2.2207,7.63661 -1.78742,10.45299 0.43329,2.81638 8.73754,4.40831 16.39708,6.55298 7.65955,2.14468 44.11865,2.45128 44.11865,2.45128 h 0.71476 c 0,0 36.45964,-0.3066 44.11918,-2.45128 7.65954,-2.14467 15.96325,-3.7366 16.39654,-6.55298 0.43328,-2.81638 -1.56167,-9.24226 -1.56167,-9.24226 0,0 -1.57935,-7.54748 -2.01264,-11.66371 -0.43328,-4.11626 -18.08974,-14.19054 -18.08974,-14.19054 l -9.31615,-7.04086 c 0,0 -6.40371,-17.94726 -8.70157,-29.89615 -2.29787,-11.94889 1.2259,-32.17038 1.2259,-32.17038 0,0 13.48071,0.45973 13.63391,-4.74877 0.15318,-5.20848 -32.17036,-9.65132 -32.17036,-9.65132 0,0 25.58327,-7.5061 25.58327,-33.8549 0,0 -0.76723,-27.250025 -29.46406,-27.249889 -28.69683,1.36e-4 -29.46351,27.249889 -29.46351,27.249889 z"
       sodipodi:nodetypes="ccscsccscssccsscsccscscczc" /><path
       style="fill:#ffd4ad;fill-opacity:1;stroke:none;stroke-width:6.28697;stroke-linecap:square;stroke-linejoin:miter;stroke-miterlimit:24.3;stroke-dasharray:none;stroke-opacity:1;paint-order:markers stroke fill"
       d="m 448.84999,93.147837 c 0,0 -6.98642,6.203409 -7.63636,24.401573 -0.64993,18.19816 25.8166,32.49812 25.8166,32.49812 l -15.91262,1.30512 c 0,0 -11.12939,4.00127 -11.12939,6.16772 0,2.16645 10.34909,4.34951 10.34909,4.34951 3.57664,27.74819 1.95118,47.9674 -6.99813,67.22654 l -25.807,18.64913 c -0.0988,20.16916 -12.31452,25.96717 -11.67098,25.93005 l -3.58486,-5.02408 1.78742,-10.45299 1.78743,-10.45298 27.40535,-21.2314 8.70157,-29.89615 -1.22536,-32.17038 -8.33687,-0.72312 -5.29704,-4.02565 6.1359,-4.13116 11.40136,-2.97027 7.57291,-4.69359 -12.84513,-10.63862 -5.67729,-21.09233 7.5295,-18.608045 11.40833,-7.156979 z"
       id="path3"
       sodipodi:nodetypes="csccscccccccccccccccccccc" /><path
       id="path27"
       style="fill:#ffffff;fill-opacity:1;stroke:none;stroke-width:6.00001;stroke-linecap:square;stroke-linejoin:miter;stroke-miterlimit:24.3;stroke-dasharray:none;stroke-opacity:1;paint-order:markers stroke fill"
       d="m 460.795,91.929045 c 21.22839,1.899409 28.2616,24.894045 28.3378,32.544785 l 2.49494,-14.81667 -13.06225,-17.728115 z m 28.3378,32.544785 -0.37879,2.24999 c 0.25785,-0.35454 0.38981,-1.14431 0.37879,-2.24999 z m -3.80287,31.31127 6.53552,2.59312 c 0.34832,-1.6325 -6.53552,-2.59312 -6.53552,-2.59312 z m -20.02461,1.24075 -14.96808,4.84415 32.66002,-0.36587 2.33267,1.91926 11.31301,-3.14916 -4.77749,-1.89549 c -0.17902,0.83542 -26.56013,-1.35289 -26.56013,-1.35289 z m 52.72959,87.31043 c 0,0 -14.63539,8.94284 -26.06507,9.87588 -11.42968,0.93303 -42.54934,0 -42.54934,0 0,0 51.80523,8.6066 59.37053,5.04672 7.56533,-3.55986 11.65717,-11.51351 11.65717,-11.51351 z" /><path
       id="path1"
       style="fill:none;stroke:#1a1a1a;stroke-width:7;stroke-linecap:square;stroke-linejoin:miter;stroke-miterlimit:24.3;stroke-dasharray:none;stroke-opacity:1;paint-order:markers stroke fill"
       d="m 433.68593,116.19263 c 0,30.6817 25.58273,33.8549 25.58273,33.8549 0,0 -32.323,4.44284 -32.16982,9.65132 0.15321,5.2085 13.63391,4.74877 13.63391,4.74877 0,0 3.52323,20.22149 1.22536,32.17038 -2.29785,11.94889 -8.70157,29.89615 -8.70157,29.89615 l -9.31561,7.04086 -18.08974,14.19054 -3.57485,20.90597 c 0.43329,2.81638 8.73754,4.40831 16.39708,6.55298 7.65955,2.14468 44.11865,2.45128 44.11865,2.45128 h 0.71476 c 0,0 36.45964,-0.3066 44.11918,-2.45128 7.65954,-2.14467 15.96325,-3.7366 16.39654,-6.55298 1.46633,-9.53135 -3.57431,-20.90597 -3.57431,-20.90597 l -18.08974,-14.19054 -9.31615,-7.04086 c 0,0 -6.40371,-17.94726 -8.70157,-29.89615 -2.29787,-11.94889 1.2259,-32.17038 1.2259,-32.17038 0,0 13.48071,0.45973 13.63391,-4.74877 0.15318,-5.20848 -32.17036,-9.65132 -32.17036,-9.65132 0,0 25.58327,-3.06488 25.58327,-33.8549 0,0 -0.76723,-27.250025 -29.46406,-27.249889 -28.69683,1.36e-4 -29.46351,27.249889 -29.46351,27.249889 z"
       sodipodi:nodetypes="ccscsccccsccsscccscscczc" /></g></svg>
